<?xml version="1.0" standalone="no"?>
<!DOCTYPE svg PUBLIC "-//W3C//DTD SVG 20010904//EN"
 "http://www.w3.org/TR/2001/REC-SVG-20010904/DTD/svg10.dtd">
<svg version="1.0" xmlns="http://www.w3.org/2000/svg"
 width="96.000000pt" height="96.000000pt" viewBox="0 0 96.000000 96.000000"
 preserveAspectRatio="xMidYMid meet">
<metadata>
Created by potrace 1.11, written by Peter Selinger 2001-2013
</metadata>
<g transform="translate(0.000000,96.000000) scale(0.100000,-0.100000)"
fill="#000000" stroke="none">
<path d="M193 908 c-29 -36 -173 -278 -173 -290 0 -7 98 -139 218 -293 177
-227 223 -280 242 -280 19 0 65 53 242 280 120 154 218 287 217 295 0 8 -39
78 -87 155 l-87 140 -281 3 c-218 2 -284 -1 -291 -10z m225 -90 c-8 -13 -32
-51 -53 -86 -21 -34 -39 -61 -41 -60 -3 4 -64 158 -64 163 0 3 39 5 86 5 l86
0 -14 -22z m282 18 c0 -7 -62 -166 -64 -166 -2 0 -20 28 -41 63 -21 34 -45 72
-53 85 l-14 22 86 0 c47 0 86 -2 86 -4z m-159 -93 c30 -48 56 -91 57 -95 2 -4
-51 -8 -117 -8 -67 0 -121 2 -121 5 0 10 114 185 120 185 4 0 32 -39 61 -87z
m-251 -100 c0 -2 -38 -3 -85 -3 l-84 0 51 86 51 85 34 -82 c18 -46 33 -84 33
-86z m509 65 l41 -68 -85 0 -84 0 29 81 c17 44 30 83 30 87 0 9 19 -19 69
-100z m-486 -130 c2 -13 25 -93 50 -178 26 -85 45 -155 44 -157 -2 -2 -180
225 -250 319 l-29 38 90 0 c85 0 90 -1 95 -22z m294 5 c-44 -157 -120 -409
-123 -412 -7 -8 -11 3 -48 129 -21 69 -48 162 -62 208 -13 45 -24 84 -24 87 0
3 59 5 131 5 120 0 131 -1 126 -17z m197 -20 c-15 -21 -60 -78 -99 -128 -38
-49 -88 -114 -109 -142 -22 -29 -41 -51 -44 -49 -2 2 3 24 11 48 8 23 32 103
53 176 l39 132 88 0 89 0 -28 -37z"/>
</g>
</svg>
